<?xml version="1.0" encoding="UTF-8" standalone="no"?>
<!-- Uploaded to: SVG Repo, www.svgrepo.com, Generator: SVG Repo Mixer Tools -->

<svg
   fill="#000000"
   width="680"
   height="840"
   viewBox="0 0 25.5 31.5"
   version="1.1"
   id="svg1"
   sodipodi:docname="newFile.svg"
   inkscape:version="1.3.2 (091e20e, 2023-11-25, custom)"
   xmlns:inkscape="http://www.inkscape.org/namespaces/inkscape"
   xmlns:sodipodi="http://sodipodi.sourceforge.net/DTD/sodipodi-0.dtd"
   xmlns="http://www.w3.org/2000/svg"
   xmlns:svg="http://www.w3.org/2000/svg">
  <defs
     id="defs1" />
  <sodipodi:namedview
     id="namedview1"
     pagecolor="#ffffff"
     bordercolor="#000000"
     borderopacity="0.25"
     inkscape:showpageshadow="2"
     inkscape:pageopacity="0.0"
     inkscape:pagecheckerboard="0"
     inkscape:deskcolor="#d1d1d1"
     inkscape:zoom="1.01625"
     inkscape:cx="339.9754"
     inkscape:cy="419.6802"
     inkscape:window-width="1920"
     inkscape:window-height="1009"
     inkscape:window-x="-8"
     inkscape:window-y="-8"
     inkscape:window-maximized="1"
     inkscape:current-layer="svg1" />
  <path
     d="m 17.25,2.75 c -0.276,0.004 -0.504,0.224 -0.5,0.5 v 4 c 0,0.822 0.678,1.5 1.5,1.5 h 4 c 0.668,0.01 0.646,-1 0,-1 h -4 c -0.286,0 -0.5,-0.214 -0.5,-0.5 v -4 c 0.004,-0.282 -0.218,-0.504 -0.5,-0.5 z m -15,-2 c -0.822,0 -1.5,0.678 -1.5,1.5 v 27 c 0,0.822 0.678,1.5 1.5,1.5 h 21 c 0.822,0 1.5,-0.678 1.5,-1.5 v -21 c 0,-0.133 -0.053,-0.26 -0.146,-0.354 l -7,-7 C 17.51,0.803 17.384,0.75 17.25,0.75 Z m 0,1 H 17.043 L 23.75,8.457 V 29.25 c 0,0.286 -0.214,0.5 -0.5,0.5 h -21 c -0.286,0 -0.5,-0.214 -0.5,-0.5 v -27 c 0,-0.286 0.214,-0.5 0.5,-0.5 z"
     id="path1"
     style="fill:#ffffff;stroke:#ffffff;stroke-width:1.875;stroke-dasharray:none;stroke-opacity:1" />
</svg>
